<?xml version="1.0" encoding="iso-8859-1"?>
<svg xmlns="http://www.w3.org/2000/svg" xmlns:xlink="http://www.w3.org/1999/xlink" version="1.1" viewBox="0 0 462.996 462.996" enable-background="new 0 0 462.996 462.996" width="512px" height="512px">
  <g>
    <path d="m459.215,105.782c-3.082-3.672-7.733-5.778-12.764-5.778h-107.821-64.692-107.82c-9.575,0-18.392,7.458-20.069,16.98l-39.925,226.423c-0.892,5.058 0.385,10.09 3.503,13.806 3.082,3.672 7.733,5.778 12.764,5.778h280.334c9.575,0 18.392-7.458 20.069-16.98l39.925-226.423c0.89-5.058-0.386-10.09-3.504-13.806zm-129.524,9.222l-8.988,50.976-.655-.36c-2.083-1.143-4.581-1.229-6.738-0.239l-8.303,3.815-6.521-3.577c-2.082-1.141-4.58-1.229-6.737-0.239l-8.308,3.816-6.521-3.576c-1.12-0.615-2.362-0.924-3.606-0.924-0.634,0-1.269,0.08-1.888,0.241l8.805-49.934h49.46zm118.255,1.981l-39.925,226.423c-0.416,2.356-2.99,4.584-5.298,4.584h-280.333c-0.344,0-0.966-0.055-1.273-0.42-0.261-0.311-0.341-0.879-0.222-1.56l39.925-226.423c0.416-2.356 2.99-4.584 5.298-4.584h98.882l-10.805,61.281c-0.484,2.747 0.596,5.535 2.804,7.24 1.337,1.032 2.953,1.563 4.583,1.563 1.063,0 2.131-0.226 3.13-0.685l8.305-3.815 6.521,3.576c2.079,1.142 4.579,1.23 6.737,0.24l8.308-3.816 6.522,3.577c2.082,1.142 4.581,1.229 6.738,0.239l8.303-3.815 6.521,3.577c2.122,1.163 4.672,1.232 6.851,0.186 2.18-1.046 3.722-3.079 4.142-5.46l11.265-63.886h101.528c0.344,0 0.966,0.055 1.273,0.42 0.259,0.309 0.339,0.878 0.22,1.558z" fill="#FFFFFF"/>
    <path d="m119,171.504c0-4.142-3.357-7.5-7.5-7.5h-88c-4.143,0-7.5,3.358-7.5,7.5s3.357,7.5 7.5,7.5h88c4.143,0 7.5-3.358 7.5-7.5z" fill="#FFFFFF"/>
    <path d="m95.5,260.004h-40c-4.143,0-7.5,3.358-7.5,7.5s3.357,7.5 7.5,7.5h40c4.143,0 7.5-3.358 7.5-7.5s-3.357-7.5-7.5-7.5z" fill="#FFFFFF"/>
    <path d="m111,219.504c0-4.142-3.357-7.5-7.5-7.5h-64c-4.143,0-7.5,3.358-7.5,7.5s3.357,7.5 7.5,7.5h64c4.143,0 7.5-3.358 7.5-7.5z" fill="#FFFFFF"/>
    <path d="m127,123.504c0-4.142-3.357-7.5-7.5-7.5h-112c-4.143,0-7.5,3.358-7.5,7.5s3.357,7.5 7.5,7.5h112c4.143-2.84217e-14 7.5-3.358 7.5-7.5z" fill="#FFFFFF"/>
  </g>
</svg>
