<?xml version="1.0" encoding="iso-8859-1"?>
<!-- Generator: Adobe Illustrator 16.0.0, SVG Export Plug-In . SVG Version: 6.00 Build 0)  -->
<!DOCTYPE svg PUBLIC "-//W3C//DTD SVG 1.1//EN" "http://www.w3.org/Graphics/SVG/1.1/DTD/svg11.dtd">
<svg xmlns="http://www.w3.org/2000/svg" xmlns:xlink="http://www.w3.org/1999/xlink" version="1.1" id="Capa_1" x="0px" y="0px" width="512px" height="512px" viewBox="0 0 612.013 612.013" style="enable-background:new 0 0 612.013 612.013;" xml:space="preserve">
<g>
	<g>
		<path d="M179.369,432.643c33.821,33.826,78.799,52.451,126.633,52.451c47.833,0,92.812-18.625,126.633-52.451    c33.826-33.827,52.457-78.8,52.457-126.633c0-47.839-18.631-92.812-52.457-126.632c-33.821-33.827-78.8-52.458-126.633-52.458    c-47.833,0-92.812,18.631-126.633,52.458C109.544,249.197,109.544,362.817,179.369,432.643z M347.839,138.096l-10.182,37.994    l5.893,1.58l10.176-37.969c26.006,7.418,49.969,20.918,70.186,39.781L396.3,207.092l8.626,8.626l27.611-27.611    c18.862,20.211,32.362,44.179,39.78,70.179l-37.969,10.176l1.58,5.893l37.993-10.182c3.343,13.524,5.075,27.543,5.075,41.836    c0,14.287-1.732,28.312-5.075,41.837l-37.993-10.182l-1.58,5.893l37.969,10.176c-7.418,26.006-20.918,49.969-39.78,70.186    l-27.611-27.61l-8.626,8.626l27.611,27.61c-20.211,18.862-44.18,32.362-70.186,39.78l-10.176-37.969l-5.893,1.58l10.182,37.993    c-13.525,3.344-27.544,5.076-41.837,5.076c-14.293,0-28.312-1.732-41.837-5.076l10.182-37.993l-5.893-1.58l-10.175,37.969    c-26.006-7.418-49.969-20.912-70.186-39.78l27.611-27.61l-8.626-8.626l-27.611,27.61c-19.186-20.57-32.423-44.698-39.695-70.204    l37.877-10.15l-1.58-5.894l-37.883,10.151c-6.784-27.421-6.784-56.191,0-83.612l37.883,10.151l1.58-5.893l-37.877-10.151    c7.272-25.5,20.51-49.633,39.695-70.204l27.611,27.61l8.626-8.626l-27.611-27.61c20.211-18.862,44.179-32.363,70.186-39.781    l10.175,37.969l5.893-1.58l-10.182-37.994c13.525-3.343,27.543-5.076,41.837-5.076    C320.295,133.026,334.313,134.753,347.839,138.096z" fill="#FFFFFF"/>
		<path d="M293.893,293.895c-3.233,3.233-5.021,7.54-5.021,12.115c0,1.617,0.299,3.179,0.732,4.691L167.107,371.12l2.696,5.466    l122.484-60.413c0.5,0.672,1,1.349,1.604,1.952c3.233,3.233,7.54,5.021,12.115,5.021s8.882-1.781,12.115-5.021    c1.446-1.445,2.55-3.123,3.386-4.923l103.231,26.879l1.537-5.905l-103.262-26.891c0.031-0.428,0.122-0.843,0.122-1.281    c0-4.575-1.781-8.882-5.021-12.116c-2.397-2.397-5.454-3.898-8.681-4.52l-12.951-78.317l-12.042,1.989l12.945,78.287    C296.138,292.034,294.936,292.851,293.893,293.895z M317.037,306.01c0,2.946-1.146,5.716-3.232,7.803    c-4.167,4.166-11.438,4.166-15.605,0c-2.08-2.08-3.233-4.856-3.233-7.803s1.147-5.722,3.233-7.802    c2.086-2.086,4.856-3.233,7.803-3.233c2.946,0,5.716,1.147,7.803,3.233C315.891,300.294,317.037,303.063,317.037,306.01z" fill="#FFFFFF"/>
		<path d="M606.631,94.643c6.319-12.103-12.732-37.823-32.089-57.179c-19.356-19.351-45.094-38.396-57.179-32.088    c-8.028-6.491-19.241-7.217-28.136-1.556L395.861,63.25c-11.561-9.932-28.575-10.957-40.666-1.971    c-28.379,21.089-57.441,34.821-86.382,40.824l0.006,0.018c-41.202,7.424-79.135,27.11-109.362,57.344    c-30.929,30.929-49.98,69.289-57.234,109.386l-0.128-0.024c-5.997,28.935-19.735,57.997-40.824,86.376    c-8.986,12.097-7.961,29.104,1.97,40.665L3.824,489.242c-5.655,8.895-4.935,20.113,1.556,28.135    c-6.32,12.104,12.731,37.823,32.088,57.18c19.356,19.351,45.076,38.408,57.179,32.082c4.386,3.55,9.73,5.374,15.123,5.374    c4.472,0,8.98-1.257,13.012-3.818l93.397-59.437c6.198,5.319,13.903,8.187,21.657,8.187c6.704,0,13.378-2.037,18.984-6.204    c28.373-21.089,57.436-34.821,86.376-40.824l-0.024-0.128c30.374-5.49,59.747-17.74,85.649-36.822l15.111,15.111    c1.726,1.727,4.026,2.678,6.473,2.678c2.445,0,4.746-0.951,6.472-2.678l31.21-31.204c3.557-3.568,3.557-9.37,0-12.938    l-15.11-15.111c19.082-25.902,31.325-55.275,36.822-85.649l0.128,0.024c5.996-28.94,19.734-58.003,40.824-86.382    c8.985-12.097,7.961-29.105-1.971-40.665l59.424-93.373C613.841,113.883,613.121,102.665,606.631,94.643z M452.552,159.459    c-25.854-25.86-57.361-43.984-91.713-53.348l24.828-24.829l145.062,145.062l-24.933,24.932    C496.64,217.627,478.931,185.838,452.552,159.459z M358.838,66.172c9.547-7.101,22.962-6.546,32.356,0.958l-37.219,37.219    c-15.538-3.667-31.606-5.601-47.974-5.601c-1.781,0-3.557,0.085-5.332,0.128C320.24,91.281,339.707,80.392,358.838,66.172z     M163.771,163.772c37.994-37.993,88.505-58.918,142.237-58.918s104.244,20.925,142.237,58.918    c78.427,78.427,78.427,206.042,0,284.475c-78.427,78.434-206.042,78.427-284.475,0S85.337,242.2,163.771,163.772z     M226.336,530.737L81.281,385.675l24.933-24.932c9.157,33.649,26.866,65.438,53.244,91.817    c26.378,26.378,58.167,44.087,91.817,53.244L226.336,530.737z M66.17,358.84c14.281-19.223,25.207-38.78,32.808-58.436    c-0.482,17.941,1.318,35.931,5.46,53.488l-37.316,37.311C59.624,381.802,59.075,368.381,66.17,358.84z M119.5,603.039    c-6.216,3.959-13.952,3.722-19.833-0.299l73.522-60.046l-3.861-4.723l-76.402,62.396l0.031,0.036    c-0.08,0.067-0.177,0.092-0.256,0.171c-4.959,4.954-25.829-5.246-50.92-30.343c-25.097-25.098-35.291-45.973-30.344-50.921    c0.073-0.073,0.104-0.177,0.171-0.256l0.037,0.03l62.395-76.401l-4.722-3.861L9.265,512.351    c-4.02-5.881-4.258-13.616-0.299-19.833l60.431-94.959l7.564-7.564l145.062,145.062l-7.564,7.565L119.5,603.039z M253.178,545.842    c-9.541,7.095-22.962,6.552-32.363-0.958l37.311-37.316c15.727,3.709,31.795,5.595,47.876,5.595c1.873,0,3.739-0.086,5.606-0.135    C291.958,520.635,272.395,531.561,253.178,545.842z M483.762,452.561l-31.21,31.203c-1.146,1.153-3.153,1.147-4.312,0    l-13.445-13.445l35.522-35.517l13.445,13.445C484.951,449.437,484.951,451.371,483.762,452.561z M545.84,253.18    c-14.281,19.223-25.207,38.78-32.809,58.436c0.482-17.941-1.317-35.932-5.459-53.482l37.315-37.31    C552.392,230.218,552.935,243.633,545.84,253.18z M603.037,119.502l-60.431,94.959l-7.564,7.564L389.986,76.97l7.564-7.564    L492.51,8.975c6.21-3.959,13.945-3.722,19.833,0.299L438.82,69.32l3.861,4.722l76.401-62.395l-0.03-0.037    c0.079-0.067,0.183-0.098,0.256-0.171c4.954-4.941,25.829,5.247,50.921,30.343c25.097,25.098,35.291,45.973,30.343,50.92    c-0.073,0.073-0.104,0.177-0.171,0.256l-0.036-0.031L537.97,169.33l4.723,3.861l60.046-73.522    C606.759,105.55,606.996,113.286,603.037,119.502z" fill="#FFFFFF"/>
	</g>
</g>
<g>
</g>
<g>
</g>
<g>
</g>
<g>
</g>
<g>
</g>
<g>
</g>
<g>
</g>
<g>
</g>
<g>
</g>
<g>
</g>
<g>
</g>
<g>
</g>
<g>
</g>
<g>
</g>
<g>
</g>
</svg>
