<?xml version="1.0" encoding="iso-8859-1"?>
<!-- Generator: Adobe Illustrator 19.0.0, SVG Export Plug-In . SVG Version: 6.00 Build 0)  -->
<svg version="1.1" id="Capa_1" xmlns="http://www.w3.org/2000/svg" xmlns:xlink="http://www.w3.org/1999/xlink" x="0px" y="0px"
	 viewBox="0 0 296 296" style="enable-background:new 0 0 296 296;" xml:space="preserve">
<g>
	<path d="M265.904,198.618l-11.145-7.362c5.484-13.516,8.416-28.157,8.416-43.256c0-15.295-3.002-30.123-8.625-43.784l11.354-7.5
		c3.687-2.434,4.701-7.397,2.267-11.084l-13.778-20.86c-2.436-3.686-7.396-4.704-11.085-2.267l-11.087,7.214
		c-5.396-5.779-11.211-11.048-18.211-15.696V8c0-4.418-3.249-8-7.667-8h-43h-31h-42c-4.418,0-8.333,3.582-8.333,8v46.022
		c-6,4.722-12.674,10.08-18.135,15.966l-11.247-7.483c-3.687-2.435-8.607-1.42-11.043,2.267l-13.757,20.86
		c-2.435,3.687-1.409,8.65,2.277,11.084l11.887,7.849c-5.53,13.564-8.484,28.27-8.484,43.436c0,14.97,2.886,29.488,8.28,42.907
		l-11.673,7.711c-3.687,2.435-4.701,7.397-2.266,11.084l13.778,20.86c1.539,2.329,4.086,3.592,6.684,3.592
		c1.513,0,3.044-0.429,4.401-1.325l10.789-7.235c5.556,6.049,11.51,11.553,18.51,16.384V288c0,4.418,3.915,8,8.333,8h42h31h43
		c4.418,0,7.667-3.582,7.667-8v-46.023c7-4.759,13.102-10.167,18.595-16.108l10.62,6.96c1.357,0.896,2.929,1.325,4.443,1.325
		c2.598,0,5.165-1.263,6.704-3.592l13.789-20.86C270.595,206.016,269.591,201.053,265.904,198.618z M215.864,148
		c0,37.232-30.29,67.523-67.522,67.523S80.819,185.232,80.819,148s30.29-67.522,67.522-67.522S215.864,110.768,215.864,148z
		 M155.009,33h-15V16h15V33z M140.009,263h15v17h-15V263z"/>
	<polygon points="97.009,135 108.009,135 108.009,172 119.009,172 119.009,124.349 97.009,127.658 	"/>
	<path d="M145.478,140.538c-1.472,0.044-2.823,0.26-4.057,0.649c-1.233,0.389-2.262,0.99-3.081,1.615l1.198-9.803h18.471v-9h-27.392
		l-2.725,26.665l9.83,0.646c0.345-0.951,0.968-1.692,1.864-2.319c0.898-0.627,2.082-0.917,3.553-0.917
		c2.013,0,3.482,0.758,4.413,2.251c0.929,1.491,1.395,3.541,1.395,6.137c0,2.142-0.415,3.912-1.249,5.308
		c-0.833,1.395-2.243,2.094-4.234,2.094c-1.73,0-3.119-0.529-4.167-1.589c-1.05-1.06-1.574-2.53-1.574-4.412l-10.707,0.649
		l-0.064,0.195c-0.108,4.088,1.491,7.375,4.801,9.862c3.311,2.487,7.214,3.73,11.712,3.73c5.278,0,9.332-1.54,12.166-4.622
		c2.835-3.083,4.252-6.84,4.252-11.274c0-5.105-1.245-9.046-3.732-11.826C153.663,141.798,150.105,140.452,145.478,140.538z"/>
	<path d="M185.771,139.76c-2.011,0-3.807,0.304-5.384,0.909c-1.58,0.605-2.846,1.448-3.797,2.53l-0.097-0.162
		c-0.064-3.504,0.684-6.17,2.255-7.998c1.567-1.827,3.649-2.741,6.245-2.741c1.471,0,2.772,0.113,3.909,0.341
		c1.135,0.227,2.461,0.567,3.975,1.022l1.815-7.981c-1.751-0.692-3.352-1.195-4.801-1.508c-1.448-0.314-3.106-0.472-4.965-0.472
		c-5.752,0-10.608,1.784-14.274,5.353c-3.665,3.569-5.644,8.469-5.644,14.697v9.507c0,5.904,1.735,10.555,4.914,13.95
		c3.181,3.396,7.426,5.093,12.595,5.093c4.824,0,8.824-1.552,11.927-4.655c3.104-3.102,4.674-6.991,4.674-11.663
		c0-4.737-1.164-8.624-3.512-11.663C193.262,141.279,189.988,139.76,185.771,139.76z M186.615,161.539
		c-1.038,1.551-2.38,2.326-4.024,2.326c-1.989,0-3.669-0.909-4.784-2.73c-1.114-1.819-1.798-4.432-1.798-7.835v-2.778
		c1-0.732,1.616-1.304,2.707-1.713c1.092-0.408,2.461-0.613,3.973-0.613c1.602,0,2.937,0.705,3.943,2.116
		c1.005,1.41,1.523,3.312,1.523,5.702C188.155,158.146,187.653,159.988,186.615,161.539z"/>
	<path d="M148.342,112.896c10.672-6.853,11.649-12.612,10.774-15.709c-0.704-2.494-3.277-4.562-6.468-3.986
		c-3.191,0.576-4.307,3.427-4.307,5.415c0-1.988-1.115-4.839-4.307-5.415c-3.191-0.575-5.764,1.492-6.468,3.986
		C136.692,100.284,137.67,106.044,148.342,112.896z"/>
	<path d="M152.648,184.201c-3.191,0.576-4.307,3.427-4.307,5.415c0-1.988-1.115-4.839-4.307-5.415
		c-3.191-0.575-5.764,1.492-6.468,3.986c-0.875,3.097,0.102,8.856,10.774,15.709c10.672-6.853,11.649-12.612,10.774-15.709
		C158.412,185.693,155.839,183.626,152.648,184.201z"/>
</g>
<g>
</g>
<g>
</g>
<g>
</g>
<g>
</g>
<g>
</g>
<g>
</g>
<g>
</g>
<g>
</g>
<g>
</g>
<g>
</g>
<g>
</g>
<g>
</g>
<g>
</g>
<g>
</g>
<g>
</g>
</svg>
